<?xml version="1.0" encoding="UTF-8" standalone="no"?>
<svg
   width="16"
   height="16"
   version="1.1"
   id="svg4"
   sodipodi:docname="close.svg"
   inkscape:version="1.2.2 (b0a8486541, 2022-12-01)"
   xmlns:inkscape="http://www.inkscape.org/namespaces/inkscape"
   xmlns:sodipodi="http://sodipodi.sourceforge.net/DTD/sodipodi-0.dtd"
   xmlns="http://www.w3.org/2000/svg"
   xmlns:svg="http://www.w3.org/2000/svg">
  <defs
     id="defs8" />
  <sodipodi:namedview
     id="namedview6"
     pagecolor="#ffffff"
     bordercolor="#000000"
     borderopacity="0.25"
     inkscape:showpageshadow="2"
     inkscape:pageopacity="0.0"
     inkscape:pagecheckerboard="0"
     inkscape:deskcolor="#d1d1d1"
     showgrid="false"
     inkscape:zoom="34.9375"
     inkscape:cx="6.1252236"
     inkscape:cy="8.0143113"
     inkscape:window-width="1364"
     inkscape:window-height="741"
     inkscape:window-x="0"
     inkscape:window-y="0"
     inkscape:window-maximized="1"
     inkscape:current-layer="svg4" />
  <path
     style="fill:#e2e2e2;fill-opacity:1"
     d="M 5,4 A 1,1 0 0 0 4,5 1,1 0 0 0 4.29,5.71 L 6.59,8 4.29,10.29 A 1,1 0 0 0 4,11 1,1 0 0 0 5,12 1,1 0 0 0 5.71,11.71 L 8,9.41 10.28,11.7 A 1,1 0 0 0 11,12 1,1 0 0 0 12,11 1,1 0 0 0 11.71,10.29 L 9.41,8 11.7,5.72 A 1,1 0 0 0 12,5 1,1 0 0 0 11,4 1,1 0 0 0 10.29,4.29 L 8,6.59 5.72,4.3 A 1,1 0 0 0 5.71,4.29 1,1 0 0 0 5,4 Z"
     id="path2" />
</svg>
