<?xml version="1.0" encoding="UTF-8" standalone="no"?>
<svg
   width="16"
   height="16"
   version="1.1"
   id="svg978"
   sodipodi:docname="default.svg"
   inkscape:version="1.2.2 (b0a8486541, 2022-12-01)"
   xmlns:inkscape="http://www.inkscape.org/namespaces/inkscape"
   xmlns:sodipodi="http://sodipodi.sourceforge.net/DTD/sodipodi-0.dtd"
   xmlns="http://www.w3.org/2000/svg"
   xmlns:svg="http://www.w3.org/2000/svg">
  <defs
     id="defs982" />
  <sodipodi:namedview
     id="namedview980"
     pagecolor="#ffffff"
     bordercolor="#000000"
     borderopacity="0.25"
     inkscape:showpageshadow="2"
     inkscape:pageopacity="0.0"
     inkscape:pagecheckerboard="0"
     inkscape:deskcolor="#d1d1d1"
     showgrid="false"
     inkscape:zoom="34.9375"
     inkscape:cx="6.1252236"
     inkscape:cy="8.0143113"
     inkscape:window-width="1364"
     inkscape:window-height="741"
     inkscape:window-x="0"
     inkscape:window-y="0"
     inkscape:window-maximized="1"
     inkscape:current-layer="svg978" />
  <path
     style="fill:#e2e2e2;fill-opacity:1"
     d="M 3,1 C 1,1 1,3 1,3 V 13 C 1,15 3,15 3,15 H 6.07 L 6.06,14.99 V 14.98 L 5.94,14.77 7.57,13.82 C 7.53,13.55 7.5,13.28 7.5,13 7.5,12.72 7.53,12.45 7.57,12.18 L 5.94,11.23 7.94,7.77 9.57,8.71 C 10.01,8.37 10.49,8.09 11,7.89 V 6 H 15 V 3 C 15,3 15,1 13,1 Z M 13,11 C 11.9,11 11,11.9 11,13 11,14.1 11.9,15 13,15 14.1,15 15,14.1 15,13 15,11.9 14.1,11 13,11 Z"
     id="path976" />
</svg>
